<?xml version="1.0" encoding="UTF-8" standalone="no"?>
<svg
   xmlns:dc="http://purl.org/dc/elements/1.1/"
   xmlns:cc="http://creativecommons.org/ns#"
   xmlns:rdf="http://www.w3.org/1999/02/22-rdf-syntax-ns#"
   xmlns:svg="http://www.w3.org/2000/svg"
   xmlns="http://www.w3.org/2000/svg"
   xmlns:xlink="http://www.w3.org/1999/xlink"
   xmlns:sodipodi="http://sodipodi.sourceforge.net/DTD/sodipodi-0.dtd"
   xmlns:inkscape="http://www.inkscape.org/namespaces/inkscape"
   width="106.9292"
   height="109.28885"
   viewBox="0 0 82.281004 146.66667"
   class="css-1j8o68f"
   version="1.1"
   id="svg98"
   sodipodi:docname="logo-icon.svg"
   inkscape:export-filename="/home/deepu/workspace/oss-libs/kdash/logo-icon.png"
   inkscape:export-xdpi="194.21513"
   inkscape:export-ydpi="194.21513"
   inkscape:version="1.0.1 (3bc2e813f5, 2020-09-07)">
  <metadata
     id="metadata102">
    <rdf:RDF>
      <cc:Work
         rdf:about="">
        <dc:format>image/svg+xml</dc:format>
        <dc:type
           rdf:resource="http://purl.org/dc/dcmitype/StillImage" />
      </cc:Work>
    </rdf:RDF>
  </metadata>
  <sodipodi:namedview
     pagecolor="#ffffff"
     bordercolor="#666666"
     borderopacity="1"
     objecttolerance="10"
     gridtolerance="10"
     guidetolerance="10"
     inkscape:pageopacity="0"
     inkscape:pageshadow="2"
     inkscape:window-width="3385"
     inkscape:window-height="1354"
     id="namedview100"
     showgrid="false"
     inkscape:zoom="5.865"
     inkscape:cx="18.326748"
     inkscape:cy="51.202152"
     inkscape:window-x="1975"
     inkscape:window-y="30"
     inkscape:window-maximized="1"
     inkscape:current-layer="svg98" />
  <defs
     id="SvgjsDefs5206">
    <linearGradient
       id="SvgjsLinearGradient5211">
      <stop
         id="SvgjsStop5212"
         stop-color="#00ddff"
         offset="0" />
      <stop
         id="SvgjsStop5213"
         stop-color="#ff00d4"
         offset="1" />
    </linearGradient>
    <linearGradient
       inkscape:collect="always"
       xlink:href="#SvgjsLinearGradient5211"
       id="linearGradient104"
       gradientTransform="scale(0.98914564,1.0109735)"
       x1="5.7018905"
       y1="20.178572"
       x2="44.872059"
       y2="20.178572"
       gradientUnits="userSpaceOnUse" />
    <linearGradient
       inkscape:collect="always"
       xlink:href="#SvgjsLinearGradient5211"
       id="linearGradient106"
       gradientTransform="scale(0.98914564,1.0109735)"
       x1="5.7018905"
       y1="20.178572"
       x2="44.872059"
       y2="20.178572"
       gradientUnits="userSpaceOnUse" />
  </defs>
  <g
     id="SvgjsG5207"
     featurekey="monogramFeature-0"
     transform="matrix(3.4262524,0,0,3.5010222,-44.295122,-67.023101)"
     fill="url(#SvgjsLinearGradient5211)"
     style="fill:url(#linearGradient106)"
     inkscape:export-xdpi="96"
     inkscape:export-ydpi="96">
    <path
       d="m 30.84,20.4 c 0.42,0 0.66,0.48 0.42,0.84 L 21.84,34.26 31.8,59.34 C 31.92,59.64 31.74,60 31.32,60 h -8.1 C 23.04,60 22.86,59.88 22.8,59.64 L 16.56,41.7 13.5,45.9 v 13.56 c 0,0.3 -0.24,0.54 -0.54,0.54 H 6.12 C 5.82,60 5.64,59.76 5.64,59.46 V 20.94 c 0,-0.3 0.18,-0.54 0.48,-0.54 h 6.84 c 0.3,0 0.54,0.24 0.54,0.54 V 33.36 L 22.92,20.64 C 23.1,20.4 23.16,20.4 23.4,20.4 Z M 9.24,24 v 32.34 c 0,0.42 0.66,0.42 0.66,0 V 44.7 l 7.5,-9.96 8.4,21.72 c 0.12,0.3 0.84,0.12 0.66,-0.36 l -8.52,-22.14 7.8,-10.38 c 0.3,-0.3 -0.24,-0.84 -0.6,-0.48 L 9.9,43.5 V 24 c 0,-0.42 -0.66,-0.42 -0.66,0 z m 20.325,12.24 h 14.4 c 0.18,0 0.42,0.3 0.42,0.42 v 5.28 c 0,0.3 -0.24,0.42 -0.42,0.42 h -14.4 c -0.3,0 -0.6,-0.12 -0.6,-0.42 v -5.28 c 0,-0.3 0.3,-0.42 0.6,-0.42 z m 2.46,2.82 c -0.54,0 -0.54,0.72 0,0.72 h 9.42 c 0.48,0 0.48,-0.72 0,-0.72 z"
       id="path94"
       style="fill:url(#linearGradient104)" />
  </g>
  <g
     id="SvgjsG5208"
     featurekey="nameFeature-0"
     transform="matrix(23.364493,0,0,23.364493,-541.00944,-743.81453)"
     fill="#07689f" />
  <rect
     style="fill:#ffffff;stroke-width:1.34201"
     id="rect232"
     width="158.51584"
     height="121.27184"
     x="-232.99327"
     y="-16.684132" />
</svg>
