<?xml version="1.0" encoding="UTF-8" standalone="no"?>
<svg
   xmlns:dc="http://purl.org/dc/elements/1.1/"
   xmlns:cc="http://creativecommons.org/ns#"
   xmlns:rdf="http://www.w3.org/1999/02/22-rdf-syntax-ns#"
   xmlns:svg="http://www.w3.org/2000/svg"
   xmlns="http://www.w3.org/2000/svg"
   xmlns:sodipodi="http://sodipodi.sourceforge.net/DTD/sodipodi-0.dtd"
   xmlns:inkscape="http://www.inkscape.org/namespaces/inkscape"
   width="240"
   height="200"
   viewBox="0 0 240 220.32917634879487"
   class="css-1j8o68f"
   version="1.1"
   id="svg204"
   sodipodi:docname="logo.svg"
   inkscape:export-filename="/home/deepu/workspace/oss-libs/kdash/artwork/logo-1x.png"
   inkscape:export-xdpi="88.32"
   inkscape:export-ydpi="88.32"
   inkscape:version="1.0.1 (3bc2e813f5, 2020-09-07)">
  <metadata
     id="metadata208">
    <rdf:RDF>
      <cc:Work
         rdf:about="">
        <dc:format>image/svg+xml</dc:format>
        <dc:type
           rdf:resource="http://purl.org/dc/dcmitype/StillImage" />
      </cc:Work>
    </rdf:RDF>
  </metadata>
  <sodipodi:namedview
     pagecolor="#ffffff"
     bordercolor="#666666"
     borderopacity="1"
     objecttolerance="10"
     gridtolerance="10"
     guidetolerance="10"
     inkscape:pageopacity="0"
     inkscape:pageshadow="2"
     inkscape:window-width="3385"
     inkscape:window-height="1354"
     id="namedview206"
     showgrid="false"
     inkscape:zoom="4.195"
     inkscape:cx="72.443385"
     inkscape:cy="100"
     inkscape:window-x="1975"
     inkscape:window-y="30"
     inkscape:window-maximized="1"
     inkscape:current-layer="svg204" />
  <defs
     id="SvgjsDefs4535">
    <linearGradient
       id="SvgjsLinearGradient4540">
      <stop
         id="SvgjsStop4541"
         stop-color="#00ddff"
         offset="0" />
      <stop
         id="SvgjsStop4542"
         stop-color="#ff00d4"
         offset="1" />
    </linearGradient>
  </defs>
  <g
     id="SvgjsG4536"
     featurekey="monogramFeature-0"
     transform="matrix(3.703703805806748,0,0,3.703703805806748,27.11111102974775,-75.55555622560678)"
     fill="url(#SvgjsLinearGradient4540)">
    <path
       d="M30.84 20.4 c0.42 0 0.66 0.48 0.42 0.84 l-9.42 13.02 l9.96 25.08 c0.12 0.3 -0.06 0.66 -0.48 0.66 l-8.1 0 c-0.18 0 -0.36 -0.12 -0.42 -0.36 l-6.24 -17.94 l-3.06 4.2 l0 13.56 c0 0.3 -0.24 0.54 -0.54 0.54 l-6.84 0 c-0.3 0 -0.48 -0.24 -0.48 -0.54 l0 -38.52 c0 -0.3 0.18 -0.54 0.48 -0.54 l6.84 0 c0.3 0 0.54 0.24 0.54 0.54 l0 12.42 l9.42 -12.72 c0.18 -0.24 0.24 -0.24 0.48 -0.24 l7.44 0 z M9.24 24 l0 32.34 c0 0.42 0.66 0.42 0.66 0 l0 -11.64 l7.5 -9.96 l8.4 21.72 c0.12 0.3 0.84 0.12 0.66 -0.36 l-8.52 -22.14 l7.8 -10.38 c0.3 -0.3 -0.24 -0.84 -0.6 -0.48 l-15.24 20.4 l0 -19.5 c0 -0.42 -0.66 -0.42 -0.66 0 z M29.565 36.239999999999995 l14.4 0 c0.18 0 0.42 0.3 0.42 0.42 l0 5.28 c0 0.3 -0.24 0.42 -0.42 0.42 l-14.4 0 c-0.3 0 -0.6 -0.12 -0.6 -0.42 l0 -5.28 c0 -0.3 0.3 -0.42 0.6 -0.42 z M32.025 39.06 c-0.54 0 -0.54 0.72 0 0.72 l9.42 0 c0.48 0 0.48 -0.72 0 -0.72 l-9.42 0 z"
       id="path198" />
  </g>
  <g
     id="SvgjsG4537"
     featurekey="nameFeature-0"
     transform="matrix(1.869886938738729,0,0,1.869886938738729,-5.422673192300203,144.56135673513526)"
     fill="#07689f">
    <path
       d="M22.34 39.28 c0.28 0.4 0.12 0.72 -0.36 0.72 l-1.66 0 c-0.32 0 -0.52 -0.08 -0.72 -0.36 l-10.24 -13.44 l-3.96 4.3 l0 8.9 c0 0.36 -0.24 0.6 -0.6 0.6 l-1.3 0 c-0.36 0 -0.6 -0.24 -0.6 -0.6 l0 -26.8 c0 -0.36 0.24 -0.6 0.6 -0.6 l1.3 0 c0.36 0 0.6 0.24 0.6 0.6 l0 14.5 l13.5 -14.78 c0.2 -0.24 0.44 -0.32 0.72 -0.32 l1.82 0 c0.52 0 0.7 0.36 0.32 0.72 l-10.82 11.74 z M37.1875 12 c9.76 0 14.64 6.04 14.64 14 c0 7.94 -4.88 14 -14.64 14 l-5.86 0 c-0.36 0 -0.6 -0.24 -0.6 -0.6 l0 -26.8 c0 -0.36 0.24 -0.6 0.6 -0.6 l5.86 0 z M37.1875 37.64 c8.1 0 12.1 -4.48 12.1 -11.64 c0 -7.18 -4 -11.64 -12.1 -11.64 l-3.96 0 l0 23.28 l3.96 0 z M78.935 38.02 c0.4 0.04 0.66 0.2 0.66 0.76 l0 0.62 c0 0.44 -0.1 0.72 -0.88 0.76 c-2.7 0.18 -3.56 -1.18 -3.6 -3.02 c-2.84 2.64 -6.46 3.34 -9.1 3.34 c-4.68 0 -6.44 -2.38 -6.44 -5.52 c0 -3.08 1.82 -5.14 6.02 -5.76 l6.98 -1.06 c1.8 -0.26 2.32 -0.44 2.42 -0.9 l0 -0.12 c0 -3.62 -1.96 -5 -5.7 -5 c-3.36 0 -5.84 0.92 -6.16 3.6 c-0.04 0.34 -0.26 0.5 -0.62 0.5 l-1.2 0 c-0.36 0 -0.6 -0.2 -0.56 -0.6 c0.44 -4.16 3.8 -5.66 8.52 -5.66 c5.92 0 8.02 2.86 8.02 6.9 l0 9.58 c0 1.02 0.58 1.5 1.64 1.58 z M62.035000000000004 34.86 c0 2.04 1.2 3.4 4.3 3.4 c2.8 0 5.94 -0.74 8.66 -3.4 l0 -5.4 c-0.08 0.36 -0.4 0.52 -1.72 0.7 l-6.74 1 c-3.64 0.56 -4.5 1.82 -4.5 3.7 z M96.1425 29.18 c4.92 0.66 8.84 1.3 8.84 5.64 c0 3.3 -2.56 5.7 -8.88 5.7 c-4.8 0 -8.4 -1.46 -8.84 -5.62 c-0.04 -0.4 0.2 -0.6 0.56 -0.6 l1.22 0 c0.36 0 0.58 0.16 0.62 0.5 c0.32 2.68 3.04 3.56 6.46 3.56 c4.12 0 6.5 -1.16 6.5 -3.44 c0 -2.64 -2.68 -3.16 -6.48 -3.64 c-4.8 -0.6 -8.46 -1.48 -8.46 -5.74 c0 -3.18 2.28 -5.58 8.14 -5.58 c4.66 0 8.28 1.46 8.7 5.62 c0.04 0.4 -0.18 0.6 -0.54 0.6 l-1.22 0 c-0.36 0 -0.56 -0.16 -0.6 -0.5 c-0.34 -2.68 -3.06 -3.58 -6.38 -3.58 c-3.64 0 -5.78 1.12 -5.78 3.44 c0 2.58 2.36 3.14 6.14 3.64 z M124.03 19.96 c4.54 0 7.22 2.42 7.22 7.66 l0 11.78 c0 0.36 -0.24 0.6 -0.6 0.6 l-1.2 0 c-0.36 0 -0.6 -0.24 -0.6 -0.6 l0 -11.78 c0 -3.54 -1.72 -5.48 -5.38 -5.48 c-4.5 0 -6.9 3.66 -7.14 4.7 l0 12.56 c0 0.36 -0.24 0.6 -0.6 0.6 l-1.2 0 c-0.36 0 -0.6 -0.24 -0.6 -0.6 l0 -26.8 c0 -0.36 0.24 -0.6 0.6 -0.6 l1.2 0 c0.36 0 0.6 0.24 0.6 0.6 l0 11.2 l0.38 0 c1.1 -1.92 3.72 -3.84 7.32 -3.84 z"
       id="path201" />
  </g>
</svg>
